<svg width="22" height="22" viewBox="0 0 22 22" fill="currentColor" xmlns="http://www.w3.org/2000/svg">
<path fill-rule="evenodd" clip-rule="evenodd" d="M16.1333 1.46667H5.86667C3.43661 1.46667 1.46667 3.43661 1.46667 5.86667V16.1333C1.46667 18.5634 3.43661 20.5333 5.86667 20.5333H16.1333C18.5634 20.5333 20.5333 18.5634 20.5333 16.1333V5.86667C20.5333 3.43661 18.5634 1.46667 16.1333 1.46667ZM5.86667 0C2.6266 0 0 2.6266 0 5.86667V16.1333C0 19.3734 2.6266 22 5.86667 22H16.1333C19.3734 22 22 19.3734 22 16.1333V5.86667C22 2.6266 19.3734 0 16.1333 0H5.86667Z" />
<path d="M14.6667 9.53333C15.4767 9.53333 16.1333 10.19 16.1333 11C16.1333 11.81 15.4767 12.4667 14.6667 12.4667H7.33333C6.52332 12.4667 5.86667 11.81 5.86667 11C5.86667 10.19 6.52332 9.53333 7.33333 9.53333L14.6667 9.53333Z" />
</svg>
