<svg width="18" height="18" viewBox="0 0 18 18" fill="currentColor" xmlns="http://www.w3.org/2000/svg">
<path d="M0 3.75C0 2.75544 0.395088 1.80161 1.09835 1.09835C1.80161 0.395088 2.75544 0 3.75 0H14.25C15.2446 0 16.1984 0.395088 16.9016 1.09835C17.6049 1.80161 18 2.75544 18 3.75V9H12.75C11.7554 9 10.8016 9.39509 10.0983 10.0983C9.39509 10.8016 9 11.7554 9 12.75V18H3.75C2.75544 18 1.80161 17.6049 1.09835 16.9016C0.395088 16.1984 0 15.2446 0 14.25V3.75ZM10.5 17.7885C11.0305 17.6024 11.5124 17.2995 11.91 16.902L16.902 11.9085C17.2987 11.5112 17.6012 11.0298 17.787 10.5H12.75C12.1533 10.5 11.581 10.7371 11.159 11.159C10.7371 11.581 10.5 12.1533 10.5 12.75V17.7885Z" fill="currentColor"/>
</svg>
