<svg width="22" height="22" viewBox="0 0 24 24" fill="currentColor" xmlns="http://www.w3.org/2000/svg">
<path fill-rule="evenodd" clip-rule="evenodd" d="M0 6.4C0 2.86538 2.86538 0 6.4 0H17.6C21.1346 0 24 2.86538 24 6.4V17.6C24 21.1346 21.1346 24 17.6 24H6.4C2.86538 24 0 21.1346 0 17.6V6.4ZM10.6667 6.66667C10.6667 5.93029 11.2636 5.33333 12 5.33333C12.7364 5.33333 13.3333 5.93029 13.3333 6.66667V10.6667H17.3333C18.0697 10.6667 18.6667 11.2636 18.6667 12C18.6667 12.7364 18.0697 13.3333 17.3333 13.3333H13.3333V17.3333C13.3333 18.0697 12.7364 18.6667 12 18.6667C11.2636 18.6667 10.6667 18.0697 10.6667 17.3333V13.3333H6.66667C5.93029 13.3333 5.33333 12.7364 5.33333 12C5.33333 11.2636 5.93029 10.6667 6.66667 10.6667H10.6667V6.66667Z" />
</svg>
