<?xml version="1.0" encoding="utf-8"?>
<!-- Generator: Adobe Illustrator 24.3.0, SVG Export Plug-In . SVG Version: 6.00 Build 0)  -->
<svg version="1.1" id="Layer_1" xmlns="http://www.w3.org/2000/svg" xmlns:xlink="http://www.w3.org/1999/xlink" x="0px" y="0px"
	 viewBox="0 0 361.1 137.8" style="enable-background:new 0 0 361.1 137.8;" xml:space="preserve">
<style type="text/css">
	.st0{fill:#FE7B50;stroke:#FFFFFF;stroke-width:0.75;stroke-linecap:round;stroke-linejoin:round;}
	.st1{fill:#FE7B50;stroke:#FFFFFF;stroke-width:0.5;stroke-linecap:round;stroke-linejoin:round;}
	.st2{fill:#033F7A;stroke:#FFFFFF;stroke-width:0.75;stroke-miterlimit:10;}
	.st3{clip-path:url(#SVGID_2_);}
	.st4{fill:#033F7A;}
</style>
<path class="st0" d="M107.2,111.2c-1.3-1.9-3.2-3.4-5.4-4.3c-2.6-1.1-5.4-1.6-8.3-1.5H81.2c-1.2,0-2.4-0.2-3.5-0.8
	c-0.8-0.4-1.3-1.2-1.3-2.1c0-0.7,0.2-1.4,0.6-2c0.4-0.6,0.9-1,1.5-1.3c2.3,1,4.9,1.6,7.4,1.6c3.2,0,6.4-0.7,9.3-2.3
	c2.7-1.5,4.9-3.6,6.4-6.3c1.6-2.7,2.4-5.8,2.3-9c0-2.9-0.9-5.8-2.6-8.2h4.2c0.5,0,1-0.2,1.4-0.5c0.4-0.3,0.5-0.8,0.5-1.3v-4.7
	c0.1-0.5-0.1-1-0.5-1.4c-0.4-0.3-0.9-0.5-1.4-0.5H92.8c-1.2-0.4-2.5-0.8-3.8-1c-1-0.2-2.1-0.3-3.1-0.3c-3.2,0-6.3,0.8-9.1,2.3
	c-2.6,1.5-4.8,3.7-6.3,6.4c-1.5,2.8-2.3,6-2.3,9.2c0,2,0.3,4.1,1,6c0.6,1.9,1.6,3.6,2.8,5.1c-1.5,0.8-2.8,2.1-3.6,3.6
	c-0.9,1.6-1.3,3.4-1.3,5.2c-0.1,2.2,0.5,4.3,1.7,6.1c1.2,1.8,3,3.2,5,4c2.3,1,4.8,1.4,7.2,1.4h12.2c1.7-0.1,3.3,0.2,4.8,0.9
	c1.1,0.7,1.7,1.9,1.6,3.2c0,1.7-1.1,3-3.2,3.9c-2.8,1-5.8,1.5-8.8,1.4c-2.7,0-5.4-0.2-8-0.7c-2.4-0.4-4.7-0.9-7-1.7
	c-0.1,0-0.3-0.1-0.4-0.1c-0.1-0.1-0.3-0.1-0.5-0.2c-2.4-0.8-4.9,0.5-5.7,2.9c-0.8,2.4,0.5,4.9,2.9,5.7c0.1,0.1,0.2,0.2,0.3,0.2
	c2.7,1,5.6,1.8,8.5,2.2c3.3,0.5,6.5,0.8,9.8,0.8c3.8,0.1,7.6-0.5,11.2-1.8c2.9-1,5.5-2.8,7.4-5.2c1.8-2.4,2.7-5.2,2.6-8.2
	C109.1,115.5,108.5,113.2,107.2,111.2z M78.9,78.8c0.7-1.2,1.8-2.3,3-3c1.2-0.7,2.6-1.1,4.1-1.1c3,0,5.7,1.5,7.2,4.1
	c0.7,1.3,1.1,2.8,1.1,4.3c0,1.5-0.4,2.9-1.1,4.1c-0.7,1.2-1.8,2.2-3,2.9c-1.3,0.7-2.8,1.1-4.2,1.1c-1.5,0-2.9-0.4-4.1-1.1
	c-1.2-0.7-2.2-1.8-2.9-3c-0.7-1.3-1.1-2.7-1.1-4.1C77.9,81.6,78.2,80.1,78.9,78.8z"/>
<path class="st1" d="M19.7,67.8c-0.1-0.6,0.3-1.2,1-1.3c0.1,0,0.2,0,0.3,0h4.6V54.9c0-0.7,0.4-1.3,1.1-1.5l7.7-3
	c0.2,0,0.3-0.1,0.5-0.1c0.3,0,0.6,0.1,0.7,0.3c0.2,0.3,0.3,0.6,0.3,0.9v15h9.8c0.6-0.1,1.2,0.3,1.3,0.9c0,0.1,0,0.2,0,0.4v7.2
	c0.1,0.6-0.3,1.2-0.9,1.3c-0.1,0-0.2,0-0.3,0h-9.8v29.9c0.1,0.6-0.3,1.2-0.9,1.3c-0.1,0-0.2,0-0.3,0H27c-0.3,0-0.7-0.1-1-0.3
	c-0.2-0.3-0.4-0.6-0.3-0.9V76.3H21c-0.6,0.1-1.2-0.3-1.3-1c0-0.1,0-0.2,0-0.3L19.7,67.8z"/>
<path class="st1" d="M52.9,53.3c-1-0.6-1.8-1.3-2.3-2.3c-0.6-0.9-0.9-2-0.9-3.1c0-1.1,0.3-2.2,0.9-3.2c0.6-1,1.4-1.8,2.3-2.3
	c1-0.6,2-0.9,3.2-0.8c2.3,0,4.4,1.2,5.5,3.2c0.6,1,0.9,2,0.8,3.2c0,1.1-0.3,2.2-0.8,3.1c-0.6,0.9-1.4,1.7-2.3,2.3
	c-1,0.6-2.1,0.9-3.2,0.8C55,54.1,53.9,53.8,52.9,53.3z M60.8,66.8c0.3,0.3,0.4,0.6,0.3,1v38.4c0,0.4-0.1,0.7-0.3,1
	c-0.3,0.2-0.6,0.4-1,0.3h-7.6c-0.6,0.1-1.2-0.3-1.3-1c0-0.1,0-0.2,0-0.3V67.8c-0.1-0.6,0.3-1.2,1-1.3c0.1,0,0.2,0,0.3,0h7.7
	C60.2,66.5,60.6,66.6,60.8,66.8z"/>
<path class="st0" d="M140.6,68.2c3.1,1.9,5.7,4.6,7.4,7.9c1.8,3.3,2.6,7.1,2.5,10.8c0,1.2-0.5,2.3-1.3,3.1c-0.8,0.7-1.9,1.1-3,1.1
	h-26.8c0.8,2.3,2.3,4.4,4.3,5.9c1.9,1.5,4.3,2.3,6.8,2.3c2.7,0,5.6-1.1,8.7-3.2c0.3-0.2,0.6-0.3,0.9-0.3c0.4,0,0.7,0.2,0.9,0.6
	l1.6,2.3c0.8,1,1.4,1.9,1.9,2.6c0.2,0.3,0.3,0.6,0.3,0.9c0,0.4-0.2,0.8-0.5,1c-3.8,3.5-8.8,5.4-14,5.4c-3.9,0-7.7-1-11-2.9
	c-3.3-1.9-6.1-4.6-8-7.9c-2-3.3-3-7-3-10.9c-0.1-11.8,9.4-21.5,21.3-21.6c0.2,0,0.3,0,0.5,0C133.8,65.3,137.4,66.3,140.6,68.2z
	 M122.9,77.6c-2,1.4-3.3,3.6-3.9,5.9h20.9c-0.5-2.3-1.7-4.4-3.5-5.9c-1.8-1.5-4.2-2.3-6.6-2.2C127.4,75.3,124.9,76.1,122.9,77.6z"/>
<path class="st0" d="M187.9,70c0,0.3-0.1,0.6-0.3,0.8l-3.5,5.5c-0.2,0.4-0.6,0.6-1,0.6c-0.2,0-0.5-0.1-0.7-0.2l-0.3-0.3
	c-0.9-0.7-2-1.2-3.1-1.6c-1.1-0.3-2.2-0.5-3.4-0.5c-1.8,0-3.6,0.4-5.2,1.3c-1.6,0.9-2.9,2.1-3.8,3.7c-0.9,1.5-1.4,3.2-1.4,5v21.8
	c0.1,0.6-0.3,1.3-1,1.4c-0.1,0-0.2,0-0.3,0h-7.6c-0.7,0.1-1.2-0.4-1.3-1c0-0.1,0-0.2,0-0.3V67.8c0-0.4,0.1-0.7,0.4-1
	c0.3-0.3,0.6-0.4,1-0.4h6c0.8,0,1.2,0.3,1.3,0.8l0.9,4.6c1.4-2.1,3.3-3.8,5.6-4.9c2.2-1.2,4.6-1.8,7.1-1.8c2,0,3.9,0.3,5.7,1
	c1.7,0.6,3.3,1.6,4.6,2.8C187.8,69.2,188,69.6,187.9,70z"/>
<path class="st1" d="M344.2,48.1v-9.4c0,0-12.4-3.9-21.5,5.2c-5.2,5.2-5.5,13.3-5.5,16.2v6.5h-6.3l0,0h-12.7c0,0-0.4-8.3,0.4-10.7
	s1.8-10.3,16.4-8.2v-9.4c0,0-12.4-3.9-21.5,5.2c-5.2,5.2-5.5,13.3-5.5,16.2v6.5h-10.3v10.2H288v30.6h10.3V76.9h18.9v30.6h10.3V77.2
	h12.6V67h-12.7c0,0-0.4-8.3,0.4-10.7S329.6,46,344.2,48.1z"/>
<path class="st2" d="M334,29.6c-7.2-13.7-20.3-23.3-35.5-26.1c-14.9-2.5-30.2,2-41.3,12.2c-5.6,5-9.9,11.2-12.8,18.2
	c-15.1-5.2-33-1-43.9,11.1c-3.5,3.9-6.1,8.4-7.8,13.3c-1.2,3.3,4,4.7,5.2,1.4c5.1-14.5,19.9-23.2,34.9-22.7c4.1,0.1,8,1,11.8,2.6
	c1.3,0.8,3,0.3,3.8-1c0.1-0.2,0.2-0.4,0.2-0.6c4.5-12.8,14.5-22.8,27.2-27.5c12.8-4.5,27-2.7,38.3,4.8c6.5,4.2,11.8,10,15.3,16.9
	C331,35.4,335.6,32.7,334,29.6z"/>
<path class="st2" d="M267.1,32.1c3.5-9.6,14.3-16.1,24.4-14.5c1,0.2,1.9-0.3,2.2-1.3c0.3-1-0.3-1.9-1.3-2.2
	c-12.4-1.7-24.4,5.4-28.8,17.1C262.9,33.3,266.4,34.3,267.1,32.1L267.1,32.1z"/>
<path class="st0" d="M213.1,65c3.7,0.7,5.8,1.3,8.8,3.2c3,1.9,5.4,4.6,7,7.8c3.4,7,3.4,15.2,0,22.2c-1.6,3.2-4,5.9-7,7.8
	c-3,1.9-6.5,2.9-10.1,2.8c-2.7,0-5.4-0.6-7.8-1.8c-2.4-1.1-4.5-2.8-6.1-4.9l0.1,24.2c0.1,0.7-0.4,1.3-1.1,1.4c-0.1,0-0.2,0-0.3,0
	H189c-0.3,0-0.7-0.1-0.9-0.4c-0.2-0.3-0.4-0.6-0.4-1V86c0,0-0.7-6,4.6-13.4C196.6,66.6,206.3,63.7,213.1,65z M215.7,97.2
	c1.7-1,3.2-2.5,4.2-4.2c1.1-1.8,1.6-3.9,1.6-5.9c0-2.1-0.5-4.2-1.6-6c-1-1.8-2.5-3.3-4.2-4.3c-1.8-1-3.8-1.6-5.8-1.6
	c-6.5-0.1-11.8,5.2-11.9,11.7c0,0.1,0,0.1,0,0.2c0,2.1,0.5,4.1,1.6,5.9c1,1.8,2.5,3.2,4.3,4.2c1.8,1,3.9,1.6,6,1.6
	C211.9,98.7,214,98.2,215.7,97.2L215.7,97.2z"/>
<path class="st1" d="M236.6,67.3v16c0,0,0.1,12.4,0.6,13.7s3.4,10.5,17.1,10.5s18.4-10,18.4-12.7V67.1h-11.5v20.7
	c0,0,0.6,10.3-6.5,10.3s-6-9.8-6-10.6V67.3H236.6z"/>
<g>
	<defs>
		<path id="SVGID_1_" d="M106.7,111c-1.8-2.4-2.8-2.6-5.1-3.8s-5.2-1.4-8.4-1.4H81.1c-1.2,0-2.4-0.3-3.5-0.9
			c-0.8-0.5-1.4-1.3-1.4-2.3c0-0.8,0.2-1.6,0.6-2.2c0.4-0.6,1-1.1,1.7-1.4c2.3,1.1,4.8,1.8,7.4,1.9c3.2,0.1,6.4-0.7,9.3-2.3
			c2.7-1.5,4.9-3.6,6.4-6.3c1.6-2.7,2.4-5.8,2.3-9c0-2.9-0.9-5.8-2.6-8.2h4.2c0.5,0,1-0.2,1.4-0.5c0.4-0.3,0.5-0.8,0.5-1.3v-4.7
			c0-0.5-0.2-1-0.5-1.4c-0.4-0.3-0.9-0.5-1.4-0.5H92.8c-1.2-0.4-2.5-0.8-3.8-1c-1-0.2-2.1-0.4-3.1-0.4c-3.2,0-6.3,0.8-9.1,2.3
			c-2.6,1.5-4.8,3.7-6.3,6.4c-1.5,2.8-2.3,6-2.3,9.2c0,2,0.3,4.1,1,6c0.6,1.9,1.6,3.6,2.8,5.1c-1.4,0.8-2.6,2.1-3.3,3.6
			c-0.9,1.6-1.4,3.4-1.4,5.2c-0.1,2.1,0.5,4.2,1.7,5.9c1.2,1.7,2.8,3.1,4.8,3.9c2.3,1,4.8,1.5,7.2,1.4h12.3c1.8-0.1,3.6,0.3,5.2,1.1
			c1.1,0.7,1.6,1.9,1.5,3.2c0,1.7-1,3.3-3.5,4.2c-2.8,1-5.8,1.4-8.8,1.4c-2.7,0-5.4-0.2-8-0.7c-2.4-0.4-4.7-1.1-7-2
			c-0.1,0-0.3-0.1-0.4-0.1c-0.1-0.1-0.3-0.1-0.5-0.2c-2.5-0.7-5.1,0.7-5.8,3.2c-0.5,2.3,0.7,4.6,2.9,5.4c0.1,0.1,2.5,0.8,2.6,0.9
			c1.8,0.5,3.6,0.9,5.4,1.1c3.5,0.6,7.1,0.9,10.7,1c3.8,0,7.6-0.6,11.1-1.9c3-1,5.5-2.9,7.4-5.4c1.6-2.3,2.4-5,2.3-7.8
			C108.9,115.4,108.1,113,106.7,111z M78.9,78.9c0.7-1.2,1.8-2.3,3-3c1.2-0.7,2.6-1.1,4.1-1.1c3,0,5.7,1.5,7.2,4.1
			c0.7,1.3,1.1,2.8,1.1,4.3c0,2.9-1.6,5.6-4.1,7c-1.3,0.7-2.7,1.1-4.2,1.1c-1.4,0-2.9-0.4-4.1-1.1c-1.2-0.7-2.2-1.8-2.9-3
			c-0.7-1.3-1.1-2.7-1.1-4.1C77.9,81.6,78.2,80.2,78.9,78.9z"/>
	</defs>
	<clipPath id="SVGID_2_">
		<use xlink:href="#SVGID_1_"  style="overflow:visible;"/>
	</clipPath>
	<g class="st3">
		<path class="st4" d="M82.7,124.1c-0.3,3.4-0.5,7.3,2,10c0.8,0.9,2.1-0.4,1.3-1.3c-2.2-2.3-1.8-5.9-1.5-8.7c0-0.5-0.4-0.9-0.9-0.9
			C83.1,123.2,82.7,123.5,82.7,124.1L82.7,124.1z"/>
		<path class="st4" d="M92.7,124l2.7,9.1c0.2,0.5,0.7,0.7,1.2,0.6c0.4-0.2,0.7-0.6,0.6-1.1l-2.7-9.1c-0.2-0.5-0.7-0.7-1.2-0.5
			C92.9,123.1,92.6,123.6,92.7,124z"/>
		<path class="st4" d="M98,119.8c4.8,2.4,10.1,3.9,15.4,4.5c1.2,0.1,1.2-1.7,0-1.9c-5-0.6-9.9-2-14.4-4.3
			C97.9,117.7,97,119.3,98,119.8L98,119.8z"/>
		<path class="st4" d="M96.7,116.5c4.4-2.6,9.2-4.5,14.2-5.6c1.2-0.3,0.7-2.1-0.5-1.8c-5.1,1.2-10.1,3.2-14.6,5.8
			c-0.4,0.3-0.6,0.8-0.3,1.3C95.7,116.6,96.3,116.8,96.7,116.5L96.7,116.5z"/>
		<path class="st4" d="M92.2,104.8c-1.5,3.5-3.6,6.7-6.1,9.5c-0.8,0.9,0.5,2.2,1.3,1.3c2.6-2.9,4.8-6.3,6.4-9.9
			c0.2-0.4,0.1-1-0.3-1.3C93,104.2,92.4,104.3,92.2,104.8C92.2,104.8,92.2,104.8,92.2,104.8L92.2,104.8z"/>
		<path class="st4" d="M81.9,104.3c-2.1,1.7-4.5,3.1-6.9,4.3c-1.2,0.6-2.4,1.1-3.7,1.5c-1,0.4-2.7,1.1-3.7,0.5s-2.1,0.8-1.1,1.5
			c1.3,0.9,2.7,0.6,4.1,0.2c1.5-0.5,3-1,4.4-1.6c2.8-1.3,5.5-2.9,8-4.8C84,105,82.9,103.5,81.9,104.3L81.9,104.3z"/>
		<path class="st4" d="M67.4,99c3.7,1.7,7.6,3.2,11.6,4.3c0.5,0.1,1-0.2,1.1-0.6c0.1-0.5-0.2-1-0.6-1.1c-3.8-1.1-7.5-2.4-11.1-4.1
			c-0.4-0.2-1-0.1-1.3,0.3C66.9,98.2,67.1,98.7,67.4,99L67.4,99z"/>
		<path class="st4" d="M77.4,123.1c0,0-3.5-1.2-4.9-1.6c-2.4-0.9-5.1,0.3-6,2.7c0,0,0,0.1,0,0.1c-1.2,3.4,1.7,4.9,3.1,5.7
			c1.8,0.7,3.7,1.2,5.6,1.6C75.3,131.6,74.7,125.9,77.4,123.1z"/>
	</g>
</g>
</svg>
